<?xml version="1.0" standalone="no"?>
<!DOCTYPE svg PUBLIC "-//W3C//DTD SVG 20010904//EN"
 "http://www.w3.org/TR/2001/REC-SVG-20010904/DTD/svg10.dtd">
<svg version="1.0" xmlns="http://www.w3.org/2000/svg"
 width="153.000000pt" height="123.000000pt" viewBox="0 0 153.000000 123.000000"
 preserveAspectRatio="xMidYMid meet">
<metadata>
Created by potrace 1.16, written by Peter Selinger 2001-2019
</metadata>
<g transform="translate(0.000000,123.000000) scale(0.100000,-0.100000)"
fill="#000000" stroke="none">
<path d="M80 1050 c0 -20 4 -20 668 -18 585 3 667 5 667 18 0 13 -82 15 -667
18 -664 2 -668 2 -668 -18z"/>
<path d="M80 620 c0 -20 4 -20 668 -18 585 3 667 5 667 18 0 13 -82 15 -667
18 -664 2 -668 2 -668 -18z"/>
<path d="M87 203 c-4 -3 -7 -12 -7 -20 0 -11 115 -13 668 -11 585 3 667 5 667
18 0 13 -81 15 -661 18 -363 1 -664 -1 -667 -5z"/>
</g>
</svg>
